<svg xmlns="http://www.w3.org/2000/svg" viewBox="0 0 64 64" width="64" height="64">
  <rect width="64" height="64" rx="8" fill="#0B1F3B"/>
  <g transform="translate(8,8) scale(0.8)">
    <path d="M24 6c-1.657 0-3 1.343-3 3v2H9v2h12v2h2v-2h12v-2H27V9c0-1.657-1.343-3-3-3z" fill="#F8E1C4"/>
    <path d="M32 22c0 6.627-5.373 12-12 12S8 28.627 8 22" fill="none" stroke="#F8E1C4" stroke-width="2" stroke-linecap="round"/>
    <path d="M20 34v8" stroke="#F8E1C4" stroke-width="2" stroke-linecap="round"/>
    <path d="M12 38c4 0 8-2 8-6" stroke="#F8E1C4" stroke-width="2" stroke-linecap="round"/>
    <path d="M28 38c-4 0-8-2-8-6" stroke="#F8E1C4" stroke-width="2" stroke-linecap="round"/>
  </g>
</svg>